<svg width="208" height="204" viewBox="0 0 208 204" fill="none" xmlns="http://www.w3.org/2000/svg">
<path d="M70.0141 148.499L64.1804 136.901C64.1804 136.901 54.4142 140.134 52.125 147.879C50.4174 153.656 55.7092 162.948 55.7092 162.948C55.7092 162.948 65.831 168.733 72.333 166.057C78.8351 163.381 83.6503 156.887 83.6503 156.887L70.0141 148.499Z" fill="#F9F9F9"/>
<path d="M139.999 35.2837C156.466 31.2522 179.855 46.4892 179.855 46.4892L178.429 39.3628L190.092 36.7526L186.456 47.8018L179.855 46.4892C179.855 46.4892 191.516 69.0555 187.5 84.3598C183.483 99.664 144.596 133.706 139.609 150.214C134.622 166.723 155.892 187.338 146.306 195.307C136.72 203.275 76.8748 164.452 76.8748 164.452L65.1419 154.144L53.9767 140.379C53.9767 140.379 11.7032 88.3076 22.3551 78.8467C33.007 69.3857 56.6223 88.5675 70.6161 82.9941C84.6099 77.4208 123.532 39.3153 139.999 35.2837Z" fill="#58886A"/>
<path d="M179.855 46.4892C179.855 46.4892 156.466 31.2522 139.999 35.2837C123.532 39.3153 84.6099 77.4208 70.6161 82.9941C56.6223 88.5675 33.007 69.3857 22.3551 78.8467C11.7032 88.3076 53.9767 140.379 53.9767 140.379L65.1419 154.144L76.8748 164.452C76.8748 164.452 136.72 203.275 146.306 195.307C155.892 187.338 134.622 166.723 139.609 150.214C144.596 133.706 183.483 99.664 187.5 84.3598C191.516 69.0555 179.855 46.4892 179.855 46.4892ZM179.855 46.4892L186.456 47.8018L190.092 36.7526L178.429 39.3628L179.855 46.4892Z" stroke="#4E8173"/>
<path d="M187.431 67.1492C182.005 85.1602 105.605 45.4179 94.0155 67.9647C82.4259 90.5114 160.713 114.576 155.224 128.552C149.734 142.529 94.0476 155.843 39.2888 119.397" stroke="#165343" stroke-width="3"/>
<path d="M112.162 51.5556C111.922 50.1921 109.746 51.6081 108.972 52.6684C108.198 53.7287 105.822 57.5079 103.799 60.9389C103.799 60.9389 110.206 56.1379 110.98 55.0777C111.754 54.0174 112.402 52.9192 112.162 51.5556Z" fill="#165343" stroke="#165343" stroke-width="3"/>
<path d="M96.5087 50.9902C97.4775 49.6897 98.8364 51.658 99.0197 52.914C99.2029 54.17 99.4833 58.5494 99.6059 62.4908C99.6059 62.4908 95.9456 56.0643 95.7623 54.8083C95.5791 53.5524 95.5399 52.2908 96.5087 50.9902Z" fill="#165343" stroke="#165343" stroke-width="3"/>
<path d="M197.839 64.8105C199.687 65.1106 197.142 66.5939 195.457 67.0715C193.773 67.549 184.094 70.5253 178.768 71.7135C178.768 71.7135 190.918 65.8459 192.602 65.3683C194.287 64.8908 195.992 64.5105 197.839 64.8105Z" fill="#165343" stroke="#165343" stroke-width="3"/>
<path d="M199.116 74.6937C200.593 75.8555 197.669 75.9278 195.97 75.5308C194.271 75.1338 184.399 73.0581 179.177 71.5191C179.177 71.5191 192.568 72.2453 194.267 72.6423C195.967 73.0393 197.638 73.5319 199.116 74.6937Z" fill="#165343" stroke="#165343" stroke-width="3"/>
<path d="M108.985 84.3705C107.779 83.41 107.839 85.621 108.305 86.8486C108.771 88.0762 110.467 91.3294 112.212 95.0602C112.212 95.0602 111.682 88.9802 111.216 87.7527C110.751 86.5252 110.192 85.331 108.985 84.3705Z" fill="#165343" stroke="#165343" stroke-width="3"/>
<path d="M99.9437 78.1553C101.421 77.7992 103.662 76.4318 102.051 75.9257C100.441 75.4195 98.9468 75.6679 97.4695 76.024C96.6252 76.2275 95.3185 76.404 94.3538 76.5179C93.9703 76.5347 93.5536 76.5779 93.0993 76.6534C93.0993 76.6534 93.6305 76.6033 94.3538 76.5179C97.9105 76.3619 98.6101 78.4768 99.9437 78.1553Z" fill="#165343" stroke="#165343" stroke-width="3"/>
<path d="M89.4101 76.4397C88.7706 75.6214 88.3151 73.7437 89.5685 73.9474C90.8218 74.151 91.5381 74.8925 92.1776 75.7108C92.5431 76.1785 93.1949 76.7956 93.6863 77.2386C93.8993 77.3928 94.1153 77.5795 94.3331 77.805C94.3331 77.805 94.0547 77.5707 93.6863 77.2386C91.7105 75.8084 89.9874 77.1784 89.4101 76.4397Z" fill="#165343" stroke="#165343" stroke-width="3"/>
<path d="M101.94 72.0033C103.649 71.1621 105.865 68.2942 103.599 67.4899C101.332 66.6856 99.5536 67.3211 97.8453 68.1623C96.869 68.643 95.2954 69.1203 94.1262 69.4412C93.6485 69.514 93.1408 69.6411 92.6001 69.8343C92.6001 69.8343 93.2495 69.6817 94.1262 69.4412C98.5562 68.7661 100.398 72.7626 101.94 72.0033Z" fill="#165343" stroke="#165343" stroke-width="3"/>
<path d="M117.742 85.9686C116.784 84.607 116.717 87.1039 117.04 88.5916C117.364 90.0794 118.686 95.2112 119.946 99.8098C119.946 99.8098 119.75 91.7774 119.426 90.2897C119.102 88.8021 118.699 87.3301 117.742 85.9686Z" fill="#165343" stroke="#165343" stroke-width="3"/>
<path d="M104.41 82.1234C104.817 82.7652 104.206 83.6222 103.814 83.7264C103.423 83.8307 102.058 83.9623 100.83 83.9967C100.83 83.9967 102.828 81.7012 103.219 81.5969C103.61 81.4926 104.004 81.4816 104.41 82.1234Z" fill="#165343" stroke="#165343" stroke-width="3"/>
<path d="M90.3849 81.858C89.7619 82.5287 90.7979 83.3395 91.4365 83.4149C92.075 83.4903 94.2897 83.5215 96.2786 83.4658C96.2786 83.4658 92.9216 81.3204 92.283 81.2449C91.6445 81.1695 91.0079 81.1874 90.3849 81.858Z" fill="#165343" stroke="#165343" stroke-width="3"/>
<path d="M132.932 100.039C132.205 99.3921 131.092 100.92 131.235 101.689C131.377 102.458 133.312 106.006 133.986 108.361C133.986 108.361 134.618 104.075 134.475 103.306C134.332 102.537 133.66 100.685 132.932 100.039Z" fill="#165343" stroke="#165343" stroke-width="3"/>
<path d="M161.404 117.524C162.37 117.792 161.445 119.409 160.643 119.664C159.841 119.92 155.526 120.084 152.956 120.677C152.956 120.677 156.744 118.12 157.546 117.864C158.348 117.609 160.439 117.256 161.404 117.524Z" fill="#165343" stroke="#165343" stroke-width="3"/>
<path d="M147.096 123.971C147.303 122.903 149.308 123.738 149.698 124.578C150.088 125.417 150.768 130.052 151.754 132.763C151.754 132.763 148.322 128.935 147.932 128.096C147.541 127.257 146.89 125.038 147.096 123.971Z" fill="#165343" stroke="#165343" stroke-width="3"/>
<path d="M140.099 129.184C139.707 128.175 141.844 127.774 142.619 128.263C143.394 128.752 146.426 132.265 148.698 133.996C148.698 133.996 143.767 132.672 142.992 132.183C142.217 131.694 140.49 130.192 140.099 129.184Z" fill="#165343" stroke="#165343" stroke-width="3"/>
<path d="M130.268 133.556C129.222 132.723 131.553 132.388 132.761 132.792C133.969 133.195 139.609 136.095 143.32 137.524C143.32 137.524 136.658 136.436 135.45 136.032C134.242 135.629 131.314 134.389 130.268 133.556Z" fill="#165343" stroke="#165343" stroke-width="3"/>
<path d="M116.96 132.672C115.814 131.476 118.744 131.313 120.163 131.973C121.583 132.632 129.392 138.209 133.72 140.478C133.72 140.478 124.338 137.122 122.919 136.462C121.5 135.803 118.106 133.867 116.96 132.672Z" fill="#165343" stroke="#165343" stroke-width="3"/>
<path d="M65.1439 117.847C64.6278 115.734 68.1829 117.28 69.3925 118.913C70.6021 120.547 83.9915 134.391 87.4995 139.681C87.4995 139.681 71.6808 127.186 68.5335 124.968C65.3862 122.75 65.66 119.959 65.1439 117.847Z" fill="#165343" stroke="#165343" stroke-width="3"/>
<path d="M25.1881 106.322C25.0214 103.969 29.5756 104.824 30.835 106.423C32.0945 108.022 47.1455 120.719 50.6535 126.008C50.6535 126.008 31.8604 115.568 28.0511 113.808C24.2418 112.047 25.3548 108.676 25.1881 106.322Z" fill="#165343" stroke="#165343" stroke-width="3"/>
<path d="M54.4114 120C54.0871 118.708 56.2676 119.646 57.0141 120.643C57.7605 121.64 67.9565 131.889 70.1236 135.119C70.1236 135.119 58.4476 125.702 56.5137 124.352C54.5798 123.002 54.7357 121.292 54.4114 120Z" fill="#165343" stroke="#165343" stroke-width="3"/>
<path d="M102.476 129.37C104.557 127.042 109.228 134.199 111.963 136.337C114.699 138.475 120.951 141.131 124.374 142.123C124.374 142.123 114.158 139.724 109.758 137.304C105.357 134.884 100.395 131.699 102.476 129.37Z" fill="#165343" stroke="#165343" stroke-width="3"/>
<path d="M83.887 124.31C85.9733 122.095 89.6718 129.028 94.7664 133.259C99.8609 137.489 105.786 141.908 109.748 142.802C109.748 142.802 97.1797 140.205 92.0298 136.354C86.8799 132.504 81.8008 126.524 83.887 124.31Z" fill="#165343" stroke="#165343" stroke-width="3"/>
<path d="M121.314 148.627C120.54 149.737 122.865 149.365 123.912 148.62C124.959 147.874 129.569 143.42 132.733 140.95C132.733 140.95 126.646 143.97 125.6 144.716C124.553 145.461 122.088 147.518 121.314 148.627Z" fill="#165343" stroke="#165343" stroke-width="3"/>
<path d="M107.859 153.265C107.089 154.75 109.942 154.037 111.121 152.983C112.3 151.93 118.254 144.267 121.778 140.807C121.778 140.807 113.708 146.809 112.529 147.863C111.35 148.916 108.629 151.779 107.859 153.265Z" fill="#165343" stroke="#165343" stroke-width="3"/>
<path d="M20.7721 118.82C18.736 119.508 21.9259 121.727 23.934 121.889C25.942 122.051 44.6414 126.114 50.9258 126.29C50.9258 126.29 32.0518 119.423 28.5198 117.914C24.9877 116.405 22.8083 118.132 20.7721 118.82Z" fill="#165343" stroke="#165343" stroke-width="3"/>
<path d="M45.974 133.168C44.8457 133.857 47.0484 134.74 48.2721 134.561C49.4958 134.382 63.8707 134.338 67.6565 133.581C67.6565 133.581 52.807 131.981 50.4931 131.567C48.1791 131.152 47.1023 132.48 45.974 133.168Z" fill="#165343" stroke="#165343" stroke-width="3"/>
<path d="M82.3682 150.424C83.9128 153.13 89.9894 147.092 93.1159 145.563C96.2424 144.035 102.918 142.724 106.474 142.458C106.474 142.458 95.9764 142.703 91.1624 144.164C86.3483 145.625 80.8237 147.719 82.3682 150.424Z" fill="#165343" stroke="#165343" stroke-width="3"/>
<path d="M70.7999 143.089C64.4406 144.909 58.2772 149.767 57.2536 146.898C56.23 144.029 63.2756 140.601 69.5335 139.152C75.4203 137.788 86.6295 139.783 87.9379 140.024C87.9801 140.031 88.0219 140.039 88.0635 140.047C88.0635 140.047 88.0203 140.039 87.9379 140.024C83.9765 139.318 77.2408 141.246 71.0047 143.031L70.7999 143.089Z" fill="#165343" stroke="#165343" stroke-width="3"/>
<path d="M141.558 103.332C141.158 102.754 139.999 104.025 139.841 104.508C139.683 104.992 139.509 107.116 139.234 108.664C139.234 108.664 141.969 106.153 142.127 105.669C142.285 105.185 141.958 103.911 141.558 103.332Z" fill="#165343" stroke="#165343" stroke-width="3"/>
<path d="M156.82 112.114C157.074 111.285 154.695 111.926 154.044 112.334C153.392 112.742 149.29 115.531 147.41 116.971C147.41 116.971 154.209 115.264 154.861 114.856C155.512 114.448 156.566 112.942 156.82 112.114Z" fill="#165343" stroke="#165343" stroke-width="3"/>
<path d="M89.2105 61.1718C89.6715 60.3651 90.8944 60.738 91.2099 61.1813C91.5253 61.6246 92.3813 63.2777 93.0635 64.8045C93.0635 64.8045 89.5986 63.3538 89.2832 62.9105C88.9678 62.4673 88.7494 61.9786 89.2105 61.1718Z" fill="#165343" stroke="#165343" stroke-width="3"/>
<path d="M154.862 62.8371C156.147 62.2177 158.022 59.9997 156.236 60.2116C154.451 60.4235 153.102 60.992 151.817 61.6114C150.783 62.1096 144.111 64.6284 141.538 65.5954C141.179 65.7163 140.841 65.8424 140.528 65.9743C140.528 65.9743 140.912 65.8308 141.538 65.5954C146.011 64.0888 153.672 63.4106 154.862 62.8371Z" fill="#165343" stroke="#165343" stroke-width="3"/>
<path d="M143.689 58.2856C144.875 59.4543 143.974 59.6585 142.862 60.2022C141.75 60.7459 135.337 62.2945 131.674 63.8394C131.674 63.8394 138.907 59.5214 140.019 58.9777C141.131 58.4341 142.503 57.1168 143.689 58.2856Z" fill="#165343" stroke="#165343" stroke-width="3"/>
<path d="M171.584 62.8841C174.203 62.8396 170.715 63.9642 168.373 64.4259C166.032 64.8877 157.808 66.3634 150.384 67.643C150.384 67.643 161.905 64.2616 164.246 63.7999C166.588 63.3382 168.964 62.9286 171.584 62.8841Z" fill="#165343" stroke="#165343" stroke-width="3"/>
<path d="M175.94 66.7752C177.416 66.8331 172.995 68.1613 171.717 68.4109C170.439 68.6605 166.266 69.2948 162.195 69.9546C162.195 69.9546 168.831 67.4296 170.109 67.18C171.388 66.9304 174.464 66.7173 175.94 66.7752Z" fill="#165343" stroke="#165343" stroke-width="3"/>
<path d="M135.605 57.0222C137.035 56.9173 133.19 58.7492 132.039 59.143C130.888 59.5369 127.078 60.6399 123.373 61.7575C123.373 61.7575 128.99 58.4707 130.141 58.0769C131.292 57.6831 134.175 57.1271 135.605 57.0222Z" fill="#165343" stroke="#165343" stroke-width="3"/>
<path d="M125.622 93.4464C124.936 92.6142 125.246 96.1972 125.492 97.1357C125.738 98.0741 126.749 101.006 127.689 103.897C127.689 103.897 127.84 98.1324 127.595 97.194C127.349 96.2556 126.307 94.2786 125.622 93.4464Z" fill="#165343" stroke="#165343" stroke-width="3"/>
<path d="M162.911 122.835C164.204 122.765 161.394 126.144 160.487 126.837C159.579 127.531 156.489 129.413 153.503 131.336C153.503 131.336 157.345 125.142 158.253 124.449C159.161 123.756 161.619 122.905 162.911 122.835Z" fill="#165343" stroke="#165343" stroke-width="3"/>
<path d="M149.327 104.73C150.222 104.127 148.901 107.474 148.397 108.303C147.893 109.133 146.085 111.657 144.358 114.161C144.358 114.161 145.861 108.592 146.365 107.762C146.869 106.933 148.432 105.333 149.327 104.73Z" fill="#165343" stroke="#165343" stroke-width="3"/>
<path d="M101.404 91.4431C100.492 90.1901 102.661 90.3087 103.855 90.8147C105.048 91.3207 108.198 93.1314 111.816 95.0039C111.816 95.0039 105.86 94.3074 104.667 93.8014C103.474 93.2954 102.316 92.6961 101.404 91.4431Z" fill="#165343" stroke="#165343" stroke-width="3"/>
<path d="M106.99 99.1957C105.788 98.0636 109.001 98.1105 111.277 97.9258C113.553 97.7412 115.889 98.5079 120.172 100.081C120.172 100.081 115.3 98.4325 112.564 99.2416C109.828 100.051 108.192 100.328 106.99 99.1957Z" fill="#165343" stroke="#165343" stroke-width="3"/>
<path d="M127.107 109.658C126.487 109.381 127.112 108.21 127.635 108.074C128.159 107.937 130.955 108.128 132.629 107.862C132.629 107.862 130.135 109.543 129.611 109.68C129.087 109.817 127.728 109.934 127.107 109.658Z" fill="#165343" stroke="#165343" stroke-width="3"/>
<path d="M135.034 114.604C134.568 114.375 134.689 113.24 134.861 113.036C135.033 112.832 136.017 112.352 136.669 111.883C136.669 111.883 136.625 114.483 136.453 114.687C136.281 114.891 135.5 114.832 135.034 114.604Z" fill="#165343" stroke="#165343" stroke-width="3"/>
<path d="M118.461 103.16C117.717 103.468 120.591 104.104 121.364 104.148C122.137 104.193 124.583 104.151 126.987 104.152C126.987 104.152 122.445 102.647 121.672 102.603C120.898 102.558 119.205 102.853 118.461 103.16Z" fill="#165343" stroke="#165343" stroke-width="3"/>
<path d="M141.792 118.932C142.142 119.312 143.093 118.441 143.189 118.165C143.285 117.889 143.358 116.956 143.484 116.052C143.484 116.052 141.349 117.265 141.253 117.541C141.157 117.817 141.442 118.551 141.792 118.932Z" fill="#165343" stroke="#165343" stroke-width="3"/>
<path d="M124.323 55.6859C125.756 55.8367 122.999 57.8694 122.064 58.2347C121.129 58.5999 117.893 59.4936 114.778 60.4332C114.778 60.4332 118.375 56.5031 119.31 56.1379C120.244 55.7726 122.89 55.535 124.323 55.6859Z" fill="#165343" stroke="#165343" stroke-width="3"/>
<path d="M183.068 66.0615C184.175 65.6871 181.472 67.9109 180.636 68.4552C179.799 68.9995 176.995 70.6437 174.275 72.2778C174.275 72.2778 178.116 68.5498 178.953 68.0055C179.789 67.4612 181.961 66.4359 183.068 66.0615Z" fill="#165343" stroke="#165343" stroke-width="3"/>
<path d="M152.267 74.7253C153.147 75.853 153.849 78.6759 152.342 77.691C150.834 76.7061 149.876 75.5963 148.997 74.4686C148.289 73.5618 143.418 68.3333 141.537 66.3209C141.269 66.0529 141.021 65.7892 140.799 65.5318C140.799 65.5318 141.08 65.8311 141.537 66.3209C144.883 69.6628 151.453 73.6813 152.267 74.7253Z" fill="#165343" stroke="#165343" stroke-width="3"/>
<path d="M140.244 73.8319C141.822 73.312 141.105 72.728 140.347 71.7454C139.589 70.7628 134.523 66.5197 131.919 63.5038C131.919 63.5038 136.501 70.5951 137.259 71.5777C138.016 72.5602 138.665 74.3517 140.244 73.8319Z" fill="#165343" stroke="#165343" stroke-width="3"/>
<path d="M168.145 81.8149C170.474 83.021 167.842 80.4597 165.946 79.0034C164.05 77.5471 157.327 72.5628 151.236 68.1108C151.236 68.1108 160.074 76.2712 161.97 77.7275C163.866 79.1837 165.815 80.6087 168.145 81.8149Z" fill="#165343" stroke="#165343" stroke-width="3"/>
<path d="M173.971 79.5812C175.32 80.1863 171.942 77.0276 170.906 76.2347C169.87 75.4419 166.408 73.0157 163.05 70.612C163.05 70.612 167.886 75.8299 168.922 76.6227C169.958 77.4155 172.622 78.976 173.971 79.5812Z" fill="#165343" stroke="#165343" stroke-width="3"/>
<path d="M132.522 70.7084C133.758 71.439 131.118 68.0849 130.259 67.2194C129.401 66.3539 126.471 63.6688 123.642 61.0176C123.642 61.0176 127.23 66.4649 128.088 67.3303C128.946 68.1958 131.286 69.9778 132.522 70.7084Z" fill="#165343" stroke="#165343" stroke-width="3"/>
<path d="M112.527 68.091C113.879 68.4874 111.737 65.6492 110.948 64.9763C110.158 64.3035 107.351 62.3055 104.664 60.3114C104.664 60.3114 107.204 65.1557 107.994 65.8285C108.783 66.5013 111.176 67.6945 112.527 68.091Z" fill="#165343" stroke="#165343" stroke-width="3"/>
<path d="M122.26 69.1696C123.611 69.6723 122.035 66.6223 121.357 65.8787C120.68 65.135 118.173 62.8933 115.794 60.6642C115.794 60.6642 117.287 65.7888 117.964 66.5324C118.641 67.276 120.908 68.667 122.26 69.1696Z" fill="#165343" stroke="#165343" stroke-width="3"/>
<path d="M183.838 75.8093C185 75.8727 181.838 74.4526 180.895 74.1522C179.952 73.8517 176.835 73.0188 173.803 72.1727C173.803 72.1727 178.437 74.7395 179.38 75.04C180.323 75.3404 182.675 75.7459 183.838 75.8093Z" fill="#165343" stroke="#165343" stroke-width="3"/>
</svg>
